<svg width="1920" height="2094" viewBox="0 0 1920 2094" fill="none" xmlns="http://www.w3.org/2000/svg">
<path d="M1920 0.0782471C1896.55 148.014 1778.98 472.374 1496.33 586.329C1143.02 728.774 963.869 633.811 729.827 852.807C495.784 1071.8 253.757 1430.34 118.023 1604.76C9.43509 1744.3 -5.06988 1764.97 1.25109 1757.86" stroke="#E5E5E5"/>
<path d="M1920 154.078C1896.55 301.761 1778.98 625.568 1496.33 739.33C1143.02 881.531 963.869 786.73 729.827 1005.35C495.784 1223.98 253.757 1581.9 118.023 1756.02C9.43509 1895.32 -5.06988 1915.96 1.25109 1908.86" stroke="#E5E5E5"/>
<path d="M1920 333.078C1896.55 481.098 1778.98 805.642 1496.33 919.663C1143.02 1062.19 963.869 967.171 729.827 1186.29C495.784 1405.41 253.757 1764.15 118.023 1938.67C9.43509 2078.29 -5.06988 2098.97 1.25109 2091.86" stroke="#E5E5E5"/>
</svg>
