<svg width="1920" height="1868" viewBox="0 0 1920 1868" fill="none" xmlns="http://www.w3.org/2000/svg">
<path d="M0 51.1669C27.4119 -0.853917 116.634 -57.826 254.228 130.453C426.221 365.801 43.1235 297.053 215.618 723.591C388.112 1150.13 313.899 1415.08 759.175 1371.43C1115.4 1336.5 1681.48 1555.59 1920 1669.5" stroke="#E5E5E5"/>
<path d="M0 251.106C27.4119 199.148 116.634 142.244 254.228 330.297C426.221 565.363 43.1235 496.698 215.618 922.724C388.112 1348.75 313.899 1613.39 759.175 1569.78C1115.4 1534.9 1681.48 1753.73 1920 1867.5" stroke="#E5E5E5"/>
<path d="M0 139.045C27.4119 87.1493 116.634 30.3138 254.228 218.141C426.221 452.925 43.1235 384.343 215.618 809.858C388.112 1235.37 313.899 1499.69 759.175 1456.14C1115.4 1421.3 1681.48 1639.86 1920 1753.5" stroke="#E5E5E5"/>
</svg>
