<svg width="26" height="25" viewBox="0 0 26 25" fill="none" xmlns="http://www.w3.org/2000/svg">
<path fill-rule="evenodd" clip-rule="evenodd" d="M12.8165 0C5.73884 0 0 5.73799 0 12.8165C0 18.4789 3.67252 23.283 8.76446 24.9777C9.40524 25.0965 9.64057 24.6997 9.64057 24.3614C9.64057 24.0557 9.62868 23.046 9.62291 21.975C6.05736 22.7504 5.3052 20.463 5.3052 20.463C4.72198 18.9818 3.88203 18.5877 3.88203 18.5877C2.71899 17.7923 3.96965 17.8084 3.96965 17.8084C5.25664 17.8991 5.93409 19.1293 5.93409 19.1293C7.07745 21.0887 8.93255 20.5223 9.664 20.1948C9.77911 19.3665 10.111 18.8008 10.4776 18.4809C7.63096 18.1573 4.63861 17.0581 4.63861 12.1471C4.63861 10.7481 5.13915 9.60457 5.95888 8.70724C5.82594 8.3843 5.38721 7.08067 6.08334 5.31539C6.08334 5.31539 7.15945 4.97072 9.60814 6.62903C10.6308 6.34515 11.7271 6.20287 12.8163 6.19777C13.9055 6.20287 15.0028 6.34515 16.027 6.62903C18.4733 4.97088 19.548 5.31522 19.548 5.31522C20.2455 7.08033 19.807 8.38396 19.6737 8.70673C20.4955 9.60423 20.9926 10.7476 20.9926 12.1466C20.9926 17.0696 17.9945 18.1532 15.1407 18.4706C15.6003 18.8685 16.01 19.6484 16.01 20.8442C16.01 22.5591 15.9954 23.9394 15.9954 24.3614C15.9954 24.7026 16.2258 25.102 16.8754 24.9763C21.9657 23.2798 25.6331 18.4774 25.6331 12.8166C25.6329 5.73799 19.8947 0 12.8165 0Z" fill="black"/>
<path d="M4.859 18.4008C4.83064 18.4646 4.73047 18.484 4.63929 18.4398C4.5459 18.3981 4.49412 18.3111 4.52417 18.2473C4.55185 18.1819 4.65202 18.1638 4.7449 18.2074C4.83794 18.2493 4.89092 18.3369 4.859 18.4008ZM5.37669 18.9801C5.31556 19.0368 5.19586 19.0107 5.11521 18.921C5.03099 18.8315 5.01554 18.7118 5.07752 18.6544C5.14034 18.5979 5.25648 18.6244 5.34018 18.7139C5.42423 18.8042 5.4407 18.9227 5.37669 18.9801ZM5.88198 19.7187C5.80337 19.7735 5.67484 19.7224 5.59538 19.6083C5.51676 19.4942 5.51676 19.3575 5.59707 19.3027C5.67688 19.248 5.80337 19.2976 5.88402 19.4104C5.96212 19.5263 5.96212 19.6628 5.88198 19.7187ZM6.57592 20.432C6.50562 20.5094 6.35604 20.4885 6.24652 20.3827C6.13446 20.2795 6.10322 20.1328 6.17351 20.0554C6.24482 19.9778 6.39526 19.9994 6.50562 20.1046C6.61683 20.2075 6.65062 20.3552 6.57592 20.432ZM7.53099 20.8458C7.49974 20.9459 7.3561 20.9918 7.21076 20.9488C7.06559 20.905 6.97068 20.7875 7.00022 20.6862C7.0301 20.5851 7.17511 20.5376 7.32112 20.5833C7.46596 20.6269 7.56121 20.7437 7.53099 20.8458ZM8.57944 20.9222C8.58284 21.0279 8.45991 21.1157 8.30778 21.1174C8.15429 21.1208 8.03017 21.0352 8.02847 20.9313C8.02847 20.8244 8.14902 20.7378 8.30183 20.7352C8.45464 20.7318 8.57944 20.8172 8.57944 20.922M9.55573 20.7566C9.5739 20.8595 9.46812 20.9655 9.31667 20.9936C9.16793 21.0212 9.03023 20.9573 9.01139 20.8553C8.99271 20.7495 9.10053 20.6437 9.24909 20.6164C9.40072 20.5899 9.53638 20.6519 9.55573 20.7566Z" fill="black"/>
</svg>
