<svg width="25" height="25" viewBox="0 0 25 25" fill="none" xmlns="http://www.w3.org/2000/svg">
<path d="M7.32304 0.0875172C5.99303 0.150225 5.0848 0.362516 4.29073 0.674391C3.46906 0.994702 2.77249 1.42439 2.07947 2.11991C1.38655 2.81543 0.959673 3.5124 0.641755 4.33553C0.334045 5.13115 0.125502 6.04021 0.066752 7.37093C0.00800169 8.70166 -0.0050192 9.12947 0.00154333 12.524C0.00800169 15.9184 0.0230018 16.3439 0.0874812 17.6775C0.151023 19.0072 0.362483 19.9152 0.674463 20.7094C0.995298 21.5312 1.42447 22.2275 2.1203 22.9207C2.81604 23.6139 3.5125 24.0397 4.3375 24.3582C5.13251 24.6655 6.04178 24.8749 7.37231 24.9332C8.70284 24.9915 9.13107 25.005 12.5246 24.9985C15.9182 24.992 16.3455 24.9769 17.6786 24.9137C19.0119 24.8505 19.9151 24.6374 20.7097 24.3269C21.5314 24.0055 22.2282 23.5769 22.9209 22.881C23.6136 22.185 24.0402 21.4875 24.3579 20.6639C24.6659 19.8689 24.8752 18.9598 24.9329 17.6302C24.9912 16.2959 25.005 15.87 24.9985 12.476C24.992 9.08197 24.9767 8.65645 24.9134 7.32343C24.8502 5.99042 24.6384 5.08521 24.3267 4.29042C24.0054 3.46865 23.5767 2.77293 22.8812 2.07918C22.1857 1.38543 21.4876 0.959181 20.6645 0.642203C19.8688 0.334392 18.9602 0.124705 17.6297 0.0672048C16.2991 0.00970495 15.8709 -0.00519083 12.4761 0.00147582C9.08128 0.00793413 8.65627 0.0225174 7.32304 0.0875172ZM7.46908 22.6844C6.25032 22.6314 5.58855 22.4289 5.14751 22.2594C4.56354 22.0344 4.1475 21.7625 3.70802 21.3271C3.26843 20.8919 2.99854 20.4744 2.77052 19.8917C2.59926 19.4507 2.39301 18.7896 2.33603 17.5709C2.27405 16.2537 2.26103 15.8582 2.25374 12.5209C2.24645 9.18374 2.25926 8.78864 2.31697 7.47093C2.36905 6.25323 2.57281 5.59073 2.74197 5.1499C2.96697 4.56521 3.23802 4.1499 3.67427 3.71074C4.11052 3.27147 4.52677 3.00095 5.11001 2.77293C5.55063 2.60095 6.21157 2.39647 7.42981 2.33845C8.74804 2.27595 9.14305 2.26345 12.4798 2.25616C15.8166 2.24887 16.2127 2.26137 17.5314 2.31949C18.7491 2.37241 19.4119 2.57418 19.8523 2.74449C20.4364 2.96949 20.8523 3.2397 21.2914 3.67678C21.7307 4.11365 22.0014 4.52844 22.2295 5.11292C22.4017 5.55219 22.6062 6.21292 22.6637 7.43197C22.7264 8.7502 22.7407 9.14551 22.7467 12.482C22.7527 15.8184 22.7409 16.2147 22.6831 17.5319C22.63 18.7507 22.4279 19.4127 22.2581 19.8542C22.0331 20.438 21.762 20.8542 21.3254 21.2932C20.8889 21.7322 20.4732 22.0027 19.8897 22.2307C19.4497 22.4025 18.7879 22.6075 17.5707 22.6655C16.2524 22.7275 15.8574 22.7405 12.5193 22.7478C9.18128 22.7551 8.78732 22.7415 7.46908 22.6844ZM17.6594 5.81917C17.6599 6.11586 17.7484 6.40575 17.9137 6.65216C18.0789 6.89857 18.3136 7.09044 18.5879 7.20349C18.8622 7.31655 19.1639 7.34571 19.4548 7.2873C19.7457 7.22889 20.0127 7.08552 20.2221 6.87533C20.4315 6.66514 20.5739 6.39757 20.6312 6.10646C20.6885 5.81536 20.6582 5.51379 20.5441 5.2399C20.43 4.96601 20.2373 4.73211 19.9903 4.56777C19.7432 4.40344 19.453 4.31605 19.1563 4.31667C18.7586 4.3175 18.3775 4.47624 18.0968 4.758C17.8161 5.03975 17.6588 5.42145 17.6594 5.81917ZM6.08178 12.5125C6.08876 16.0575 8.96784 18.9247 12.512 18.918C16.0564 18.9112 18.9256 16.0325 18.9189 12.4875C18.9122 8.94249 16.0325 6.07448 12.4876 6.08146C8.94284 6.08844 6.07511 8.96791 6.08178 12.5125ZM8.33335 12.508C8.33173 11.6839 8.57451 10.8779 9.03099 10.1918C9.48747 9.50566 10.1372 8.97033 10.8979 8.65346C11.6586 8.33659 12.4962 8.25242 13.3048 8.41158C14.1134 8.57075 14.8566 8.96611 15.4405 9.54766C16.0243 10.1292 16.4227 10.8708 16.585 11.6788C16.7474 12.4867 16.6666 13.3246 16.3527 14.0866C16.0389 14.8486 15.5061 15.5004 14.8218 15.9596C14.1376 16.4188 13.3325 16.6648 12.5084 16.6664C11.9612 16.6676 11.4191 16.5609 10.9131 16.3526C10.4072 16.1442 9.94718 15.8382 9.55948 15.452C9.17178 15.0659 8.86395 14.6071 8.65357 14.102C8.44319 13.5968 8.33438 13.0552 8.33335 12.508Z" fill="black"/>
</svg>
