<?xml version="1.0" encoding="UTF-8" standalone="no"?>
<!DOCTYPE svg PUBLIC "-//W3C//DTD SVG 1.1//EN" "http://www.w3.org/Graphics/SVG/1.1/DTD/svg11.dtd">
<svg width="100%" height="100%" viewBox="0 0 1000 566" version="1.1" xmlns="http://www.w3.org/2000/svg" xmlns:xlink="http://www.w3.org/1999/xlink" xml:space="preserve" xmlns:serif="http://www.serif.com/" style="fill-rule:evenodd;clip-rule:evenodd;stroke-linejoin:round;stroke-miterlimit:2;">
    <g id="logo" transform="matrix(1,0,0,1,0,-208.27862)">
        <rect x="0" y="208.279" width="1000" height="565.274" style="fill:none;"/>
        <clipPath id="_clip1">
            <rect x="0" y="208.279" width="1000" height="565.274"/>
        </clipPath>
        <g clip-path="url(#_clip1)">
            <g transform="matrix(3.076903,0,0,3.995016,-1222.028793,-689.949547)">
                <path d="M648.222,224.907C670.806,224.907 688.776,230.175 702.131,240.712C715.486,251.249 722.164,265.884 722.164,284.616L722.164,366.402L666.789,366.402L666.789,290.386C666.789,281.354 663.694,274.372 657.505,269.438C651.316,264.504 642.793,262.037 631.935,262.037C621.077,262.037 612.554,264.504 606.365,269.438C600.176,274.372 597.081,281.354 597.081,290.386L597.081,366.402L541.706,366.402L541.706,290.386C541.706,281.354 538.612,274.372 532.423,269.438C526.234,264.504 517.71,262.037 506.852,262.037C495.995,262.037 487.471,264.504 481.282,269.438C475.093,274.372 471.999,281.354 471.999,290.386L471.999,366.402L416.298,366.402L416.298,226.412L471.999,226.412L471.999,243.974C477.645,238.12 485.028,233.479 494.149,230.05C503.269,226.621 513.584,224.907 525.094,224.907C538.775,224.907 550.99,227.165 561.739,231.681C572.488,236.196 580.903,242.636 586.984,250.998C593.281,243.305 601.859,237.033 612.717,232.182C623.575,227.332 635.41,224.907 648.222,224.907ZM648.222,226.993C635.9,226.993 624.518,229.322 614.076,233.987C603.614,238.66 595.342,244.698 589.275,252.111C588.765,252.733 587.868,253.103 586.913,253.083C585.958,253.064 585.087,252.659 584.621,252.017C578.796,244.007 570.738,237.837 560.442,233.512C550.075,229.156 538.289,226.993 525.094,226.993C514.028,226.993 504.106,228.628 495.337,231.924C486.625,235.199 479.566,239.626 474.173,245.217C473.476,245.94 472.257,246.237 471.148,245.954C470.039,245.671 469.29,244.873 469.29,243.974L469.29,228.498L419.006,228.498L419.006,364.316L469.29,364.316L469.29,290.386C469.29,280.717 472.709,273.27 479.334,267.988C486.002,262.673 495.154,259.951 506.852,259.951C518.551,259.951 527.703,262.673 534.371,267.988C540.996,273.27 544.415,280.717 544.415,290.386L544.415,364.316L594.373,364.316L594.373,290.386C594.373,280.717 597.792,273.27 604.417,267.988C611.085,262.673 620.237,259.951 631.935,259.951C643.633,259.951 652.785,262.673 659.453,267.988C666.079,273.27 669.497,280.717 669.497,290.386L669.497,364.316L719.456,364.316L719.456,284.616C719.456,266.516 713.097,252.35 700.193,242.169C687.325,232.016 669.983,226.993 648.222,226.993Z"/>
            </g>
            <g transform="matrix(3.076903,0,0,3.995016,-1280.908176,-689.949547)">
                <path d="M648.222,224.907C670.806,224.907 688.776,230.175 702.131,240.712C715.486,251.249 722.164,265.884 722.164,284.616L722.164,366.402L666.789,366.402L666.789,290.386C666.789,281.354 663.694,274.372 657.505,269.438C651.316,264.504 642.793,262.037 631.935,262.037C621.077,262.037 612.554,264.504 606.365,269.438C600.176,274.372 597.081,281.354 597.081,290.386L597.081,366.402L541.706,366.402L541.706,290.386C541.706,281.354 538.612,274.372 532.423,269.438C526.234,264.504 517.71,262.037 506.852,262.037C495.995,262.037 487.471,264.504 481.282,269.438C475.093,274.372 471.999,281.354 471.999,290.386L471.999,366.402L416.298,366.402L416.298,226.412L471.999,226.412L471.999,243.974C477.645,238.12 485.028,233.479 494.149,230.05C503.269,226.621 513.584,224.907 525.094,224.907C538.775,224.907 550.99,227.165 561.739,231.681C572.488,236.196 580.903,242.636 586.984,250.998C593.281,243.305 601.859,237.033 612.717,232.182C623.575,227.332 635.41,224.907 648.222,224.907Z" style="fill-rule:nonzero;"/>
            </g>
        </g>
    </g>
</svg>
