<svg width="38" height="38" viewBox="0 0 38 38" fill="none" xmlns="http://www.w3.org/2000/svg">
<path d="M15.832 23.75L15.832 19" stroke="black" stroke-width="2" stroke-linecap="round"/>
<path d="M22.168 23.75L22.168 19" stroke="black" stroke-width="2" stroke-linecap="round"/>
<path d="M4.75 11.0835H33.25H32.5C30.6144 11.0835 29.6716 11.0835 29.0858 11.6693C28.5 12.2551 28.5 13.1979 28.5 15.0835V27.6668C28.5 29.5524 28.5 30.4953 27.9142 31.081C27.3284 31.6668 26.3856 31.6668 24.5 31.6668H13.5C11.6144 31.6668 10.6716 31.6668 10.0858 31.081C9.5 30.4953 9.5 29.5524 9.5 27.6668V15.0835C9.5 13.1979 9.5 12.2551 8.91421 11.6693C8.32843 11.0835 7.38562 11.0835 5.5 11.0835H4.75Z" stroke="black" stroke-width="2" stroke-linecap="round"/>
<path d="M15.9425 5.33677C16.123 5.16843 16.5205 5.01969 17.0736 4.9136C17.6266 4.8075 18.3042 4.75 19.0013 4.75C19.6984 4.75 20.376 4.8075 20.929 4.9136C21.4821 5.01969 21.8796 5.16843 22.0601 5.33677" stroke="black" stroke-width="2" stroke-linecap="round"/>
</svg>
