<svg width="110" height="84" viewBox="0 0 110 84" fill="none" xmlns="http://www.w3.org/2000/svg">
<path d="M40.417 5.49951L40.417 2.99951H40.417V5.49951ZM83.999 34.3335L83.9991 31.8335H83.999V34.3335ZM107.499 57.8335L109.999 57.8335V57.8335H107.499ZM83.999 81.3335V83.8335H83.9991L83.999 81.3335ZM29.3555 79.6919L30.2754 77.3673L30.1809 77.3299L30.0838 77.3003L29.3555 79.6919ZM2.5 43.4165H0V43.4165L2.5 43.4165ZM75.8301 29.8475L78.1645 28.9526L75.8301 29.8475ZM77.9128 33.8055L76.4964 35.8655L77.9128 33.8055ZM40.417 5.49951L40.417 7.99951C55.5065 7.99964 68.3957 17.4382 73.4958 30.7424L75.8301 29.8475L78.1645 28.9526C72.348 13.7795 57.6458 2.99966 40.417 2.99951L40.417 5.49951ZM81.9389 34.3335V36.8335H83.999V34.3335V31.8335H81.9389V34.3335ZM83.999 34.3335L83.999 36.8335C95.5969 36.8337 104.999 46.2357 104.999 57.8335H107.499H109.999C109.999 43.4742 98.3582 31.8337 83.9991 31.8335L83.999 34.3335ZM107.499 57.8335L104.999 57.8334C104.999 69.4311 95.5967 78.8333 83.999 78.8335L83.999 81.3335L83.9991 83.8335C98.3581 83.8333 109.999 72.1926 109.999 57.8335L107.499 57.8335ZM83.999 81.3335V78.8335H37.999V81.3335V83.8335H83.999V81.3335ZM37.999 81.3335V78.8335C35.2677 78.8335 32.6633 78.3123 30.2754 77.3673L29.3555 79.6919L28.4355 82.0165C31.3984 83.189 34.6264 83.8335 37.999 83.8335V81.3335ZM29.3555 79.6919L30.0838 77.3003C15.5619 72.8779 5.00013 59.3781 5 43.4165L2.5 43.4165L0 43.4165C0.000152588 61.64 12.0598 77.0382 28.6272 82.0835L29.3555 79.6919ZM2.5 43.4165H5C5 23.8564 20.8569 7.99951 40.417 7.99951V5.49951V2.99951C18.0955 2.99951 0 21.095 0 43.4165H2.5ZM75.8301 29.8475L73.4958 30.7424C73.9164 31.8397 74.2921 32.8268 74.671 33.5936C75.0531 34.3669 75.5878 35.2407 76.4964 35.8655L77.9128 33.8055L79.3293 31.7455C79.47 31.8422 79.4016 31.8804 79.1535 31.3784C78.9022 30.8698 78.6204 30.1419 78.1645 28.9526L75.8301 29.8475ZM81.9389 34.3335V31.8335C80.7998 31.8335 80.1369 31.8304 79.6561 31.7807C79.2168 31.7353 79.2252 31.6739 79.3293 31.7455L77.9128 33.8055L76.4964 35.8655C77.3684 36.4651 78.3037 36.6676 79.1424 36.7543C79.9397 36.8366 80.9059 36.8335 81.9389 36.8335V34.3335Z" fill="black"/>
<path d="M84.166 0C97.0526 0 107.5 10.4465 107.5 23.333C107.5 29.3368 105.231 34.8104 101.506 38.9453C96.8857 34.7352 90.7431 32.1671 84 32.167H81.9395C80.8007 32.167 80.1379 32.1639 79.6572 32.1143C79.51 32.099 79.4134 32.0796 79.3535 32.0664C79.3122 32.0034 79.2441 31.8936 79.1543 31.7119C78.903 31.2033 78.6209 30.4754 78.165 29.2861C75.3621 21.9744 70.4953 15.6837 64.2773 11.127C68.3829 4.45159 75.7544 0.000115065 84.166 0Z" fill="#FFFF2A"/>
</svg>
